HIERARCHY
ROOT joint_0
{
	OFFSET 0.000000 0.000000 0.000000
	CHANNELS 6 Xposition Yposition Zposition Zrotation Yrotation Xrotation 
	JOINT joint_1
	{
		OFFSET 14.113007 -2.961990 123.953979
		CHANNELS 3 Zrotation Yrotation Xrotation
		JOINT joint_2
		{
			OFFSET 0.764000 -2.434006 113.871948
			CHANNELS 3 Zrotation Yrotation Xrotation
			JOINT joint_3
			{
				OFFSET 0.186996 -2.169998 113.753052
				CHANNELS 3 Zrotation Yrotation Xrotation
				JOINT joint_4
				{
					OFFSET 16.096001 -2.720001 160.853027
					CHANNELS 3 Zrotation Yrotation Xrotation
					JOINT joint_5
					{
						OFFSET 34.392006 -0.188995 92.567017
						CHANNELS 3 Zrotation Yrotation Xrotation
						End Site
						{
							OFFSET 0.000000 0.000000 0.000000
						}
					}
				}
				JOINT joint_6
				{
					OFFSET 9.183998 -36.684006 89.597046
					CHANNELS 3 Zrotation Yrotation Xrotation
					JOINT joint_7
					{
						OFFSET 0.486000 -164.365997 -28.984009
						CHANNELS 3 Zrotation Yrotation Xrotation
						JOINT joint_8
						{
							OFFSET 38.899002 -34.967010 -291.651978
							CHANNELS 3 Zrotation Yrotation Xrotation
							JOINT joint_9
							{
								OFFSET 41.714005 -45.890991 -258.857056
								CHANNELS 3 Zrotation Yrotation Xrotation
								End Site
								{
									OFFSET 0.000000 0.000000 0.000000
								}
							}
						}
					}
				}
				JOINT joint_10
				{
					OFFSET 8.867004 33.650002 90.817993
					CHANNELS 3 Zrotation Yrotation Xrotation
					JOINT joint_11
					{
						OFFSET 0.018997 164.299999 -29.368042
						CHANNELS 3 Zrotation Yrotation Xrotation
						JOINT joint_12
						{
							OFFSET 29.440994 30.887997 -293.216919
							CHANNELS 3 Zrotation Yrotation Xrotation
							JOINT joint_13
							{
								OFFSET 46.174011 54.490005 -256.422058
								CHANNELS 3 Zrotation Yrotation Xrotation
								End Site
								{
									OFFSET 0.000000 0.000000 0.000000
								}
							}
						}
					}
				}
			}
		}
	}
	JOINT joint_14
	{
		OFFSET -2.264000 -89.466995 -116.150024
		CHANNELS 3 Zrotation Yrotation Xrotation
		JOINT joint_15
		{
			OFFSET -16.400993 -17.452988 -493.781982
			CHANNELS 3 Zrotation Yrotation Xrotation
			JOINT joint_16
			{
				OFFSET -50.497004 -13.404022 -424.754013
				CHANNELS 3 Zrotation Yrotation Xrotation
				JOINT joint_17
				{
					OFFSET 198.546007 -19.341003 -89.309000
					CHANNELS 3 Zrotation Yrotation Xrotation
					End Site
					{
						OFFSET 0.000000 0.000000 0.000000
					}
				}
			}
		}
	}
	JOINT joint_18
	{
		OFFSET -0.867996 96.016006 -110.817993
		CHANNELS 3 Zrotation Yrotation Xrotation
		JOINT joint_19
		{
			OFFSET -10.130997 24.658998 -493.645020
			CHANNELS 3 Zrotation Yrotation Xrotation
			JOINT joint_20
			{
				OFFSET -48.871004 19.434999 -424.714005
				CHANNELS 3 Zrotation Yrotation Xrotation
				JOINT joint_21
				{
					OFFSET 195.579996 24.926001 -94.327003
					CHANNELS 3 Zrotation Yrotation Xrotation
					End Site
					{
						OFFSET 0.000000 0.000000 0.000000
					}
				}
			}
		}
	}
}
MOTION
Frames: 13
Frame Time: 0.016667
83.764000 -147.642000 1144.264040 2.458939 -2.195445 -0.623495 -0.228769 -0.455724 0.924016 -0.209777 0.073446 -0.197625 -0.213198 -0.084509 0.123160 -0.128417 -0.660617 0.339346 0.000000 0.000000 0.000000 -0.559089 0.167662 0.156488 0.026778 0.067106 1.088766 -0.457240 1.138419 -1.577110 0.000000 0.000000 0.000000 0.075732 0.174089 0.359632 0.062000 0.171835 -0.631699 0.222840 0.657411 0.463526 0.000000 0.000000 0.000000 2.390579 0.858314 0.856790 2.420451 0.329669 0.503286 2.396211 -0.696627 1.008450 0.000000 0.000000 0.000000 0.354350 0.800576 -0.079057 0.260708 -1.025227 0.032542 0.380035 1.470707 -0.004253 0.000000 0.000000 0.000000 
84.014000 -147.371000 1144.314940 2.455844 -1.996849 -0.612628 -0.291319 -0.394038 1.019760 -0.272895 0.063738 -0.248798 -0.276283 -0.084695 0.155573 -0.126622 -0.794401 0.334028 0.000000 0.000000 0.000000 -0.658896 0.092336 0.159968 0.040487 -0.028328 1.054838 -0.440775 1.001989 -1.627621 0.000000 0.000000 0.000000 0.711255 0.176333 0.527966 0.015258 0.051971 -0.863380 0.200090 0.624702 0.375441 0.000000 0.000000 0.000000 2.387996 0.651612 0.810355 2.408106 0.333054 0.526646 2.387829 -0.709847 1.003449 0.000000 0.000000 0.000000 0.353831 0.599106 -0.096621 0.270039 -1.032486 0.008673 0.386718 1.472810 -0.001296 0.000000 0.000000 0.000000 
84.784000 -147.138000 1144.432010 2.414931 -1.747533 -0.598334 -0.359183 -0.305282 1.090328 -0.342227 0.049091 -0.290168 -0.345278 -0.074991 0.179585 -0.115392 -1.130607 0.301974 0.000000 0.000000 0.000000 -0.758586 0.061474 0.084447 0.063937 -0.080661 1.051439 -0.378229 0.761577 -1.506977 0.000000 0.000000 0.000000 1.064938 0.322486 0.750542 -0.038206 0.125129 -1.057907 0.112083 0.398560 0.152243 0.000000 0.000000 0.000000 2.400335 0.453125 0.758943 2.413957 0.254188 0.546155 2.392491 -0.693892 1.007179 0.000000 0.000000 0.000000 0.361020 0.429509 -0.115038 0.279652 -1.154082 -0.008471 0.401874 1.515250 0.000608 0.000000 0.000000 0.000000 
86.251000 -146.951000 1144.692990 2.329449 -1.426189 -0.583992 -0.436419 -0.145865 1.119679 -0.423109 0.023543 -0.312485 -0.425151 -0.042991 0.189776 -0.085711 -1.877219 0.217294 0.000000 0.000000 0.000000 -0.900820 0.100835 -0.156429 0.111752 -0.073910 1.116046 -0.222159 0.285695 -1.064220 0.000000 0.000000 0.000000 0.853813 0.757901 1.085327 -0.120684 0.583461 -1.218594 -0.125908 -0.331772 -0.306593 0.000000 0.000000 0.000000 2.433129 0.275808 0.700412 2.445722 0.037154 0.566442 2.415963 -0.635954 1.023477 0.000000 0.000000 0.000000 0.371974 0.327076 -0.133435 0.278531 -1.490612 -0.005486 0.423784 1.643167 -0.005123 0.000000 0.000000 0.000000 
88.237000 -146.802990 1145.021000 2.206152 -1.056323 -0.567543 -0.518693 0.046389 1.120793 -0.510075 -0.008195 -0.325088 -0.510849 -0.005082 0.192942 -0.050885 -2.830499 0.118503 0.000000 0.000000 0.000000 -1.049710 0.183569 -0.459586 0.165563 -0.025851 1.185263 -0.019678 -0.287874 -0.439308 0.000000 0.000000 0.000000 0.366803 1.341456 1.436159 -0.212181 1.238551 -1.333308 -0.430747 -1.286593 -0.869326 0.000000 0.000000 0.000000 2.480618 0.109340 0.637220 2.495474 -0.263231 0.583094 2.452536 -0.544807 1.048896 0.000000 0.000000 0.000000 0.390687 0.259398 -0.152753 0.277443 -1.942966 0.006060 0.454821 1.817071 -0.012318 0.000000 0.000000 0.000000 
90.595000 -146.779010 1145.215940 2.030413 -0.712187 -0.539070 -0.576773 0.137450 1.083147 -0.570640 -0.023030 -0.322922 -0.570856 0.009323 0.186568 -0.028039 -3.514159 0.056230 0.000000 0.000000 0.000000 -1.058988 0.293479 -0.630088 0.183005 0.079823 1.161147 0.122846 -0.612239 0.087586 0.000000 0.000000 0.000000 -0.004912 1.767610 1.611002 -0.240992 1.727445 -1.284000 -0.605709 -1.718793 -1.333841 0.000000 0.000000 0.000000 2.540447 -0.020391 0.582154 2.559697 -0.555434 0.572150 2.498957 -0.423176 1.081709 0.000000 0.000000 0.000000 0.435481 0.205896 -0.174233 0.306214 -2.310483 0.002396 0.505866 1.940998 -0.003500 0.000000 0.000000 0.000000 
93.472000 -146.965000 1145.130980 1.773388 -0.407063 -0.489183 -0.603871 0.019945 0.990501 -0.595701 -0.007465 -0.295585 -0.596637 -0.017005 0.161841 -0.018761 -3.699548 0.034288 0.000000 0.000000 0.000000 -0.792839 0.463043 -0.570563 0.137534 0.303585 0.952574 0.182708 -0.564664 0.511140 0.000000 0.000000 0.000000 -0.093018 1.911904 1.544251 -0.165795 1.901324 -0.944635 -0.567305 -1.170877 -1.770741 0.000000 0.000000 0.000000 2.617958 -0.061774 0.545926 2.649442 -0.903941 0.496445 2.558727 -0.249957 1.125562 0.000000 0.000000 0.000000 0.525431 0.182522 -0.197572 0.384702 -2.570110 -0.036841 0.590002 1.975658 0.032643 0.000000 0.000000 0.000000 
96.721000 -147.274990 1144.915040 1.464198 -0.124297 -0.426910 -0.606485 -0.206056 0.859689 -0.594012 0.025596 -0.249803 -0.596307 -0.061804 0.125326 -0.017682 -3.610612 0.034982 0.000000 0.000000 0.000000 -0.380162 0.660680 -0.382811 0.057384 0.586709 0.662501 0.182470 -0.275336 0.828263 0.000000 0.000000 0.000000 -0.081853 1.896632 1.329811 -0.026777 1.908365 -0.435555 -0.401817 -0.077365 -2.148801 0.000000 0.000000 0.000000 2.708053 -0.069619 0.514793 2.753694 -1.244707 0.394940 2.628598 -0.044190 1.177122 0.000000 0.000000 0.000000 0.641610 0.169908 -0.225171 0.493375 -2.744437 -0.092261 0.693994 1.959152 0.084885 0.000000 0.000000 0.000000 
99.746000 -147.533000 1144.810060 1.174879 0.106761 -0.370151 -0.572527 -0.358291 0.733001 -0.557475 0.049854 -0.203652 -0.560620 -0.088537 0.094604 -0.026140 -3.449632 0.059721 0.000000 0.000000 0.000000 -0.075103 0.776452 -0.194981 -0.014678 0.767966 0.513232 0.081416 0.220687 0.747960 0.000000 0.000000 0.000000 -0.133144 1.784651 1.064689 0.122803 1.831439 -0.026443 -0.171151 0.997939 -2.146141 0.000000 0.000000 0.000000 2.792645 -0.179629 0.467959 2.835722 -1.289582 0.356688 2.694000 0.120185 1.222663 0.000000 0.000000 0.000000 0.746153 0.092506 -0.260039 0.604135 -2.697760 -0.129047 0.789221 1.902103 0.138094 0.000000 0.000000 0.000000 
102.233000 -147.699010 1144.895020 0.915238 0.272934 -0.327059 -0.472597 -0.361521 0.619048 -0.458358 0.057618 -0.157800 -0.461406 -0.081739 0.073953 -0.052057 -3.249397 0.129121 0.000000 0.000000 0.000000 -0.010368 0.743696 -0.034452 -0.066163 0.755548 0.631015 -0.187940 1.054590 -0.004612 0.000000 0.000000 0.000000 -0.335380 1.548438 0.743235 0.279225 1.658306 0.184430 0.145359 1.941249 -1.508129 0.000000 0.000000 0.000000 2.868938 -0.504433 0.396033 2.879108 -0.821285 0.435929 2.752553 0.210002 1.257902 0.000000 0.000000 0.000000 0.834514 -0.128766 -0.303914 0.723789 -2.274782 -0.129711 0.875227 1.774286 0.195927 0.000000 0.000000 0.000000 
104.496000 -147.812000 1145.092040 0.674648 0.387154 -0.287319 -0.335535 -0.290845 0.506440 -0.323816 0.058205 -0.110289 -0.326310 -0.058261 0.057282 -0.088339 -2.977470 0.225704 0.000000 0.000000 0.000000 -0.056344 0.628569 0.132943 -0.110457 0.640308 0.879915 -0.558979 2.095064 -1.164417 0.000000 0.000000 0.000000 -0.599744 1.214365 0.370494 0.446620 1.400351 0.296356 0.528741 2.858785 -0.469224 0.000000 0.000000 0.000000 2.939526 -0.931584 0.310644 2.900814 -0.058058 0.573215 2.808164 0.267224 1.288582 0.000000 0.000000 0.000000 0.911188 -0.415076 -0.353888 0.845688 -1.631019 -0.113011 0.953613 1.613665 0.254285 0.000000 0.000000 0.000000 
106.887000 -147.815990 1145.407960 0.494240 0.457050 -0.241131 -0.239562 -0.187784 0.406915 -0.231113 0.049795 -0.076758 -0.232731 -0.025045 0.045919 -0.116012 -2.736646 0.299992 0.000000 0.000000 0.000000 -0.067220 0.518710 0.256273 -0.142424 0.534383 1.106837 -0.872517 2.918078 -2.211223 0.000000 0.000000 0.000000 -0.814562 0.928150 0.080365 0.578436 1.175307 0.309600 0.854111 3.524351 0.544563 0.000000 0.000000 0.000000 2.994655 -1.256430 0.223190 2.913951 0.635063 0.689460 2.853521 0.318198 1.313957 0.000000 0.000000 0.000000 0.952018 -0.602251 -0.404935 0.921452 -1.096220 -0.099318 0.997307 1.519819 0.287373 0.000000 0.000000 0.000000 
109.558000 -147.634000 1145.875980 0.403879 0.465516 -0.177050 -0.220067 -0.026721 0.329806 -0.216268 0.023396 -0.071094 -0.216405 0.025473 0.042211 -0.129782 -2.568409 0.337623 0.000000 0.000000 0.000000 0.028355 0.441678 0.295843 -0.155617 0.476930 1.312772 -1.085299 3.366335 -3.044969 0.000000 0.000000 0.000000 -0.951539 0.742979 -0.056598 0.656280 1.028073 0.159345 1.086968 3.832657 1.465454 0.000000 0.000000 0.000000 3.029841 -1.400625 0.118896 2.919174 1.172844 0.774356 2.884941 0.349739 1.331158 0.000000 0.000000 0.000000 0.929729 -0.617545 -0.458790 0.915012 -0.774456 -0.100613 0.977385 1.531663 0.276278 0.000000 0.000000 0.000000 
